<svg width="80" height="80" viewBox="0 0 80 80" fill="none" xmlns="http://www.w3.org/2000/svg">
<g clip-path="url(#clip0_253_167)">
<path fill-rule="evenodd" clip-rule="evenodd" d="M73.8171 9.27429C73.8171 10.4922 73.5773 11.6982 73.1112 12.8234C72.6451 13.9486 71.962 14.971 71.1008 15.8322C70.2396 16.6934 69.2172 17.3765 68.092 17.8426C66.9668 18.3087 65.7608 18.5486 64.5429 18.5486C63.3249 18.5486 62.1189 18.3087 60.9937 17.8426C59.8685 17.3765 58.8461 16.6934 57.9849 15.8322C57.1238 14.971 56.4406 13.9486 55.9745 12.8234C55.5085 11.6982 55.2686 10.4922 55.2686 9.27429C55.2686 6.81459 56.2457 4.45564 57.9849 2.71638C59.7242 0.977109 62.0832 0 64.5429 0C67.0026 0 69.3615 0.977109 71.1008 2.71638C72.84 4.45564 73.8171 6.81459 73.8171 9.27429ZM79.6686 38.0571C79.4556 39.0075 78.9253 39.857 78.165 40.4657C77.4046 41.0744 76.4597 41.4059 75.4857 41.4057H40.56C39.4234 41.4057 38.3333 40.9542 37.5295 40.1505C36.7258 39.3467 36.2743 38.2566 36.2743 37.12C36.2743 35.9834 36.7258 34.8933 37.5295 34.0895C38.3333 33.2858 39.4234 32.8343 40.56 32.8343H49.68C50.7123 29.2555 53.0016 26.1696 56.1272 24.1439C59.2528 22.1181 63.0045 21.2886 66.6928 21.8079C70.3811 22.3271 73.758 24.1602 76.2028 26.9702C78.6476 29.7802 79.9959 33.3782 80 37.1029C79.9997 37.4491 79.883 37.7853 79.6686 38.0571ZM7.76571 18.9943C7.76571 21.7389 8.85601 24.3711 10.7967 26.3118C12.7375 28.2526 15.3697 29.3429 18.1143 29.3429C20.8589 29.3429 23.4911 28.2526 25.4318 26.3118C27.3726 24.3711 28.4629 21.7389 28.4629 18.9943C28.4629 16.2497 27.3726 13.6175 25.4318 11.6767C23.4911 9.73601 20.8589 8.64571 18.1143 8.64571C15.3697 8.64571 12.7375 9.73601 10.7967 11.6767C8.85601 13.6175 7.76571 16.2497 7.76571 18.9943ZM0 51.5371C-3.54469e-08 49.1583 0.46854 46.8028 1.37887 44.6051C2.2892 42.4074 3.62348 40.4105 5.30555 38.7284C6.98762 37.0463 8.98452 35.7121 11.1822 34.8017C13.38 33.8914 15.7355 33.4229 18.1143 33.4229C20.4931 33.4229 22.8486 33.8914 25.0463 34.8017C27.2441 35.7121 29.241 37.0463 30.923 38.7284C32.6051 40.4105 33.9394 42.4074 34.8497 44.6051C35.76 46.8028 36.2286 49.1583 36.2286 51.5371V56.44C36.2286 57.1978 35.9276 57.9245 35.3917 58.4603C34.8559 58.9961 34.1292 59.2971 33.3714 59.2971H28.4571L26.1829 77.4971C26.0965 78.188 25.7609 78.8236 25.239 79.2845C24.7171 79.7454 24.0448 79.9998 23.3486 80H12.8743C12.178 79.9998 11.5058 79.7454 10.9839 79.2845C10.462 78.8236 10.1263 78.188 10.04 77.4971L7.76 59.2971H2.85714C2.09938 59.2971 1.37266 58.9961 0.836838 58.4603C0.30102 57.9245 0 57.1978 0 56.44V51.5371Z" fill="white"/>
</g>
<defs>
<clipPath id="clip0_253_167">
<rect width="80" height="80" fill="white"/>
</clipPath>
</defs>
</svg>
