<svg width="100" height="100" viewBox="0 0 100 100" fill="none" xmlns="http://www.w3.org/2000/svg">
<path d="M45.1043 91.6666C43.2293 91.6666 41.6154 91.0416 40.2627 89.7916C38.9099 88.5416 38.0932 87.0138 37.8127 85.2083L36.8752 78.3333C35.9724 77.986 35.1224 77.5694 34.3252 77.0833C33.5279 76.5971 32.746 76.0763 31.9793 75.5208L25.521 78.2291C23.7849 78.993 22.0488 79.0624 20.3127 78.4374C18.5766 77.8124 17.2224 76.7013 16.2502 75.1041L11.3543 66.5624C10.3821 64.9652 10.1043 63.2638 10.521 61.4583C10.9377 59.6527 11.8752 58.1596 13.3335 56.9791L18.8543 52.8124C18.7849 52.3263 18.7502 51.8569 18.7502 51.4041V48.5916C18.7502 48.1416 18.7849 47.6735 18.8543 47.1874L13.3335 43.0208C11.8752 41.8402 10.9377 40.3471 10.521 38.5416C10.1043 36.736 10.3821 35.0346 11.3543 33.4374L16.2502 24.8958C17.2224 23.2985 18.5766 22.1874 20.3127 21.5624C22.0488 20.9374 23.7849 21.0069 25.521 21.7708L31.9793 24.4791C32.7432 23.9235 33.5418 23.4027 34.3752 22.9166C35.2085 22.4305 36.0418 22.0138 36.8752 21.6666L37.8127 14.7916C38.0904 12.986 38.9071 11.4583 40.2627 10.2083C41.6182 8.95825 43.2321 8.33325 45.1043 8.33325H54.896C56.771 8.33325 58.3863 8.95825 59.7418 10.2083C61.0974 11.4583 61.9127 12.986 62.1877 14.7916L63.1252 21.6666C64.0279 22.0138 64.8793 22.4305 65.6793 22.9166C66.4793 23.4027 67.2599 23.9235 68.021 24.4791L74.4793 21.7708C76.2154 21.0069 77.9516 20.9374 79.6877 21.5624C81.4238 22.1874 82.7779 23.2985 83.7502 24.8958L88.646 33.4374C89.6182 35.0346 89.896 36.736 89.4793 38.5416C89.0627 40.3471 88.1252 41.8402 86.6668 43.0208L81.146 47.1874C81.2154 47.6735 81.2502 48.143 81.2502 48.5958V51.4041C81.2502 51.8569 81.1807 52.3263 81.0418 52.8124L86.5627 56.9791C88.021 58.1596 88.9585 59.6527 89.3752 61.4583C89.7918 63.2638 89.5141 64.9652 88.5418 66.5624L83.5418 75.1041C82.5696 76.7013 81.2154 77.8124 79.4793 78.4374C77.7432 79.0624 76.0071 78.993 74.271 78.2291L68.021 75.5208C67.2571 76.0763 66.4585 76.5971 65.6252 77.0833C64.7918 77.5694 63.9585 77.986 63.1252 78.3333L62.1877 85.2083C61.9099 87.0138 61.0946 88.5416 59.7418 89.7916C58.389 91.0416 56.7738 91.6666 54.896 91.6666H45.1043ZM50.2085 64.5833C54.2363 64.5833 57.6738 63.1596 60.521 60.3124C63.3682 57.4652 64.7918 54.0277 64.7918 49.9999C64.7918 45.9721 63.3682 42.5346 60.521 39.6874C57.6738 36.8402 54.2363 35.4166 50.2085 35.4166C46.1113 35.4166 42.6557 36.8402 39.8418 39.6874C37.0279 42.5346 35.6224 45.9721 35.6252 49.9999C35.6279 54.0277 37.0349 57.4652 39.846 60.3124C42.6571 63.1596 46.1113 64.5833 50.2085 64.5833Z" fill="white"/>
</svg>
