<svg width="100" height="100" viewBox="0 0 100 100" fill="none" xmlns="http://www.w3.org/2000/svg">
<path fill-rule="evenodd" clip-rule="evenodd" d="M50.0002 5.20825C74.7377 5.20825 94.7918 25.2624 94.7918 49.9999C94.7918 74.7374 74.7377 94.7916 50.0002 94.7916C25.2627 94.7916 5.2085 74.7374 5.2085 49.9999C5.2085 25.2624 25.2627 5.20825 50.0002 5.20825ZM73.3543 30.8916C73.6846 30.2979 73.8123 29.6127 73.7183 28.9399C73.6242 28.2671 73.3135 27.6432 72.8331 27.1628C72.3527 26.6825 71.7288 26.3717 71.056 26.2776C70.3832 26.1836 69.698 26.3114 69.1043 26.6416L42.5877 41.3749C42.0783 41.6581 41.6584 42.0781 41.3752 42.5874L26.6418 69.1041C26.3116 69.6978 26.1838 70.3829 26.2779 71.0558C26.3719 71.7286 26.6827 72.3525 27.1631 72.8328C27.6435 73.3132 28.2673 73.624 28.9401 73.718C29.613 73.8121 30.2981 73.6843 30.8918 73.3541L57.4085 58.6249C57.9184 58.3406 58.3384 57.9191 58.621 57.4083L73.3543 30.8916Z" fill="white"/>
</svg>
