<svg width="123" height="123" viewBox="0 0 123 123" fill="none" xmlns="http://www.w3.org/2000/svg">
<path d="M61.5 66.625V10.25L102.5 30.75L61.5 51.25" stroke="white" stroke-width="5" stroke-linecap="round" stroke-linejoin="round"/>
<path d="M105.375 52.3877C108.102 60.7935 108.357 69.8057 106.11 78.3523C103.863 86.8988 99.2077 94.6199 92.6986 100.597C86.1895 106.574 78.1003 110.555 69.3935 112.067C60.6868 113.58 51.7289 112.559 43.5857 109.126C35.4425 105.694 28.4567 99.9941 23.4594 92.7056C18.4622 85.4172 15.6639 76.8466 15.3974 68.0135C15.131 59.1804 17.4076 50.4567 21.9564 42.8803C26.5052 35.3038 33.1347 29.1936 41.0562 25.2765" stroke="white" stroke-width="5" stroke-linecap="round" stroke-linejoin="round"/>
<path d="M41.0103 51.2346C38.4422 54.6531 36.7702 58.6599 36.1469 62.8898C35.5235 67.1198 35.9685 71.4385 37.4412 75.4525C38.914 79.4666 41.3678 83.0482 44.5789 85.8713C47.7901 88.6943 51.6567 90.669 55.8263 91.6153C59.9959 92.5617 64.3361 92.4497 68.4513 91.2895C72.5665 90.1293 76.3261 87.9578 79.3874 84.9729C82.4487 81.988 84.7144 78.2845 85.9782 74.1999C87.2419 70.1152 87.4635 65.7793 86.6228 61.5871" stroke="white" stroke-width="5" stroke-linecap="round" stroke-linejoin="round"/>
</svg>
