<svg width="100" height="100" viewBox="0 0 100 100" fill="none" xmlns="http://www.w3.org/2000/svg">
<path fill-rule="evenodd" clip-rule="evenodd" d="M14.075 21.1749C12.5 23.4166 12.5 30.0833 12.5 43.4041V49.9624C12.5 73.4541 30.1625 84.8583 41.2458 89.6958C44.25 91.0083 45.7542 91.6666 50 91.6666C54.25 91.6666 55.75 91.0083 58.7542 89.6958C69.8375 84.8541 87.5 73.4583 87.5 49.9624V43.4041C87.5 30.0791 87.5 23.4166 85.925 21.1749C84.3542 18.9374 78.0917 16.7916 65.5625 12.5041L63.175 11.6874C56.6458 9.44992 53.3833 8.33325 50 8.33325C46.6167 8.33325 43.3542 9.44992 36.825 11.6874L34.4375 12.4999C21.9083 16.7916 15.6458 18.9374 14.075 21.1749ZM68.5417 45.6249L54.375 34.9999C53.1128 34.0533 51.5777 33.5416 50 33.5416C48.4223 33.5416 46.8872 34.0533 45.625 34.9999L31.4583 45.6249C31.13 45.8711 30.8534 46.1796 30.6444 46.5328C30.4353 46.8859 30.2978 47.2767 30.2397 47.683C30.1817 48.0892 30.2043 48.5029 30.3061 48.9005C30.408 49.298 30.5871 49.6716 30.8333 49.9999C31.0796 50.3282 31.388 50.6048 31.7412 50.8139C32.0943 51.023 32.4851 51.1605 32.8914 51.2185C33.2976 51.2766 33.7114 51.254 34.1089 51.1522C34.5064 51.0503 34.88 50.8711 35.2083 50.6249L49.375 39.9999C49.5553 39.8647 49.7746 39.7916 50 39.7916C50.2254 39.7916 50.4447 39.8647 50.625 39.9999L64.7917 50.6249C65.12 50.8711 65.4936 51.0503 65.8911 51.1522C66.2886 51.254 66.7023 51.2766 67.1086 51.2185C67.5149 51.1605 67.9057 51.023 68.2588 50.8139C68.612 50.6048 68.9204 50.3282 69.1667 49.9999C69.4129 49.6716 69.592 49.298 69.6939 48.9005C69.7957 48.5029 69.8183 48.0892 69.7603 47.683C69.7022 47.2767 69.5647 46.8859 69.3556 46.5328C69.1466 46.1796 68.87 45.8711 68.5417 45.6249ZM60.2083 56.0416L51.875 49.7916C51.3341 49.3859 50.6762 49.1666 50 49.1666C49.3238 49.1666 48.6659 49.3859 48.125 49.7916L39.7917 56.0416C39.1286 56.5389 38.6903 57.2792 38.5731 58.0996C38.4559 58.9201 38.6694 59.7535 39.1667 60.4166C39.6639 61.0796 40.4043 61.518 41.2247 61.6352C42.0452 61.7524 42.8786 61.5389 43.5417 61.0416L50 56.1999L56.4583 61.0416C57.1214 61.5389 57.9548 61.7524 58.7753 61.6352C59.5957 61.518 60.3361 61.0796 60.8333 60.4166C61.3306 59.7535 61.5441 58.9201 61.4269 58.0996C61.3097 57.2792 60.8714 56.5389 60.2083 56.0416Z" fill="white"/>
</svg>
