<svg width="124" height="124" viewBox="0 0 124 124" fill="none" xmlns="http://www.w3.org/2000/svg">
<path d="M21.7879 113.507V95.1871C21.7879 88.628 20.0695 85.2168 16.6944 79.5143C12.58 72.5482 10.3814 64.6178 10.3216 56.5275C10.2617 48.4373 12.3429 40.4752 16.3538 33.449C20.3647 26.4228 26.1627 20.5825 33.1596 16.5207C40.1565 12.4588 48.1033 10.3199 56.1937 10.3209C68.3577 10.3223 80.0232 15.1543 88.6254 23.7546C97.2276 32.3548 102.062 44.0193 102.066 56.1832C102.066 59.1764 102.066 60.673 102.19 61.509C102.49 63.5113 103.429 65.2349 104.342 67.0205L113.533 84.8452L106.308 88.4577C104.218 89.5001 103.171 90.0213 102.443 90.9864C101.715 91.9514 101.509 93.0454 101.101 95.2181L101.06 95.4348C100.116 100.43 99.0783 105.942 96.1574 109.42C95.1253 110.643 93.8455 111.639 92.4057 112.346C90.0266 113.507 87.1006 113.507 81.2484 113.507C78.5391 113.507 75.8246 113.569 73.1153 113.507C66.7007 113.347 61.9271 107.949 61.9271 101.689" stroke="white" stroke-width="5.95455" stroke-linecap="round" stroke-linejoin="round"/>
<path d="M74.2509 54.3513C72.0525 54.3513 70.045 53.5153 68.5226 52.1477M74.2509 54.3513C74.2509 60.2653 70.8242 65.8801 64.229 65.8801C57.6337 65.8801 54.2071 71.4948 54.2071 77.4089M74.2509 54.3513C85.3462 54.3513 85.3462 37.0581 74.2509 37.0581C73.2394 37.0615 72.2813 37.225 71.3764 37.5484C71.9183 24.6572 53.3349 21.1583 49.1239 33.2341M49.1239 33.2341C52.1945 35.3035 54.2071 38.823 54.2071 42.8173M49.1239 33.2341C39.5664 26.7833 26.8301 38.3586 32.8886 48.6798C22.7222 50.2022 23.806 65.8801 34.1633 65.8801C35.5443 65.8795 36.9047 65.5451 38.1285 64.9053C39.3523 64.2655 40.4034 63.3394 41.192 62.2057" stroke="white" stroke-width="5.95455" stroke-linecap="round" stroke-linejoin="round"/>
</svg>
